# xmcd
#
# Track frame offsets: 
#        150
#        18257
#        40422
#        58295
#        73958
#        87750
#        104251
#        122793
#        139241
#        156032
#        173056
#        187551
#        214773
#        228153
#        240998
#        254780
#        269140
#
# Disc length: 3864 seconds
#
# Revision: 0
# Processed by: cddbd v1.4PL0 Copyright (c) Steve Scherf et al.
# Submitted via: ExactAudioCopy v0.90b4
#
DISCID=f20f1611
DTITLE=Drori-Hansen Furniture - Family
DYEAR=1986
DGENRE=Blues
TTITLE0=Family (Always On My Mind)
TTITLE1=I Can Take It
TTITLE2=When You're Around
TTITLE3=Life Is In The Air
TTITLE4=Before The Sun Goes Down
TTITLE5=So Fine Lady
TTITLE6=Man With Patience
TTITLE7=Wild Street
TTITLE8=Dance With Me
TTITLE9=Give Me Your Love
TTITLE10=Almost Giving Up
TTITLE11=Dear Little Loverboy
TTITLE12=Then You'll Know Why
TTITLE13=Intoxication
TTITLE14=I Like Your Ass
TTITLE15=Water Water
TTITLE16=Just Remember
EXTD=
EXTT0=
EXTT1=
EXTT2=
EXTT3=
EXTT4=
EXTT5=
EXTT6=
EXTT7=
EXTT8=
EXTT9=
EXTT10=
EXTT11=
EXTT12=
EXTT13=
EXTT14=
EXTT15=
EXTT16=
PLAYORDER=
